<svg width="151" height="50" viewBox="0 0 151 50" fill="none" xmlns="http://www.w3.org/2000/svg">
<path d="M35 18H39C39 17.4696 38.7893 16.9609 38.4142 16.5858C38.0391 16.2107 37.5304 16 37 16C36.4696 16 35.9609 16.2107 35.5858 16.5858C35.2107 16.9609 35 17.4696 35 18ZM33.5 18C33.5 17.5404 33.5905 17.0852 33.7664 16.6606C33.9423 16.236 34.2001 15.8501 34.5251 15.5251C34.8501 15.2001 35.236 14.9423 35.6606 14.7664C36.0852 14.5905 36.5404 14.5 37 14.5C37.4596 14.5 37.9148 14.5905 38.3394 14.7664C38.764 14.9423 39.1499 15.2001 39.4749 15.5251C39.7999 15.8501 40.0577 16.236 40.2336 16.6606C40.4095 17.0852 40.5 17.5404 40.5 18H46.25C46.4489 18 46.6397 18.079 46.7803 18.2197C46.921 18.3603 47 18.5511 47 18.75C47 18.9489 46.921 19.1397 46.7803 19.2803C46.6397 19.421 46.4489 19.5 46.25 19.5H44.93L43.76 31.611C43.6702 32.539 43.238 33.4002 42.5477 34.0268C41.8573 34.6534 40.9583 35.0004 40.026 35H33.974C33.0419 35.0001 32.1431 34.653 31.4529 34.0265C30.7628 33.3999 30.3307 32.5388 30.241 31.611L29.07 19.5H27.75C27.5511 19.5 27.3603 19.421 27.2197 19.2803C27.079 19.1397 27 18.9489 27 18.75C27 18.5511 27.079 18.3603 27.2197 18.2197C27.3603 18.079 27.5511 18 27.75 18H33.5ZM35.5 22.75C35.5 22.5511 35.421 22.3603 35.2803 22.2197C35.1397 22.079 34.9489 22 34.75 22C34.5511 22 34.3603 22.079 34.2197 22.2197C34.079 22.3603 34 22.5511 34 22.75V30.25C34 30.4489 34.079 30.6397 34.2197 30.7803C34.3603 30.921 34.5511 31 34.75 31C34.9489 31 35.1397 30.921 35.2803 30.7803C35.421 30.6397 35.5 30.4489 35.5 30.25V22.75ZM39.25 22C39.4489 22 39.6397 22.079 39.7803 22.2197C39.921 22.3603 40 22.5511 40 22.75V30.25C40 30.4489 39.921 30.6397 39.7803 30.7803C39.6397 30.921 39.4489 31 39.25 31C39.0511 31 38.8603 30.921 38.7197 30.7803C38.579 30.6397 38.5 30.4489 38.5 30.25V22.75C38.5 22.5511 38.579 22.3603 38.7197 22.2197C38.8603 22.079 39.0511 22 39.25 22ZM31.734 31.467C31.7879 32.0236 32.0472 32.5403 32.4614 32.9161C32.8755 33.292 33.4147 33.5001 33.974 33.5H40.026C40.5853 33.5001 41.1245 33.292 41.5386 32.9161C41.9528 32.5403 42.2121 32.0236 42.266 31.467L43.424 19.5H30.576L31.734 31.467Z" fill="#974FD0"/>
<path d="M73.448 24.804C73.448 25.74 73.384 26.64 73.256 27.504C73.136 28.36 72.892 29.16 72.524 29.904C72.164 30.648 71.616 31.316 70.88 31.908C70.528 32.196 70.104 32.428 69.608 32.604C69.112 32.78 68.604 32.912 68.084 33C67.572 33.08 67.1 33.12 66.668 33.12C66.02 33.12 65.416 33.116 64.856 33.108C64.304 33.1 63.744 33.088 63.176 33.072C62.608 33.056 61.976 33.04 61.28 33.024L61.124 32.868V16.74L61.28 16.584C61.968 16.56 62.596 16.544 63.164 16.536C63.732 16.52 64.296 16.512 64.856 16.512C65.416 16.504 66.02 16.5 66.668 16.5C67.1 16.5 67.576 16.544 68.096 16.632C68.616 16.712 69.124 16.84 69.62 17.016C70.116 17.192 70.536 17.424 70.88 17.712C71.608 18.304 72.152 18.976 72.512 19.728C72.88 20.472 73.128 21.272 73.256 22.128C73.384 22.984 73.448 23.876 73.448 24.804ZM70.616 24.804C70.616 24.1 70.568 23.392 70.472 22.68C70.384 21.96 70.204 21.3 69.932 20.7C69.66 20.1 69.26 19.616 68.732 19.248C68.212 18.88 67.52 18.696 66.656 18.696C66.176 18.696 65.72 18.696 65.288 18.696C64.864 18.688 64.388 18.68 63.86 18.672V30.912C64.388 30.912 64.864 30.916 65.288 30.924C65.72 30.924 66.176 30.924 66.656 30.924C67.52 30.924 68.212 30.74 68.732 30.372C69.26 29.996 69.66 29.508 69.932 28.908C70.204 28.308 70.384 27.648 70.472 26.928C70.568 26.208 70.616 25.5 70.616 24.804ZM77.3088 27.912V26.004H82.9608V25.692C82.9608 25.164 82.8848 24.68 82.7328 24.24C82.5888 23.792 82.3488 23.436 82.0128 23.172C81.6768 22.9 81.2368 22.764 80.6928 22.764C79.9088 22.764 79.3248 23.096 78.9408 23.76C78.5648 24.416 78.3768 25.328 78.3768 26.496V27.312C78.3768 28.04 78.4488 28.696 78.5928 29.28C78.7448 29.864 79.0128 30.328 79.3968 30.672C79.7808 31.008 80.3328 31.176 81.0528 31.176C81.6528 31.176 82.2288 31.092 82.7808 30.924C83.3328 30.748 83.8648 30.536 84.3768 30.288C84.5848 30.496 84.7568 30.76 84.8928 31.08C85.0368 31.4 85.1288 31.696 85.1688 31.968C84.5928 32.376 83.9048 32.704 83.1048 32.952C82.3048 33.2 81.4888 33.324 80.6568 33.324C79.6888 33.324 78.8808 33.156 78.2328 32.82C77.5848 32.476 77.0728 32.012 76.6968 31.428C76.3208 30.836 76.0488 30.168 75.8808 29.424C75.7208 28.68 75.6408 27.904 75.6408 27.096C75.6408 25.896 75.8248 24.824 76.1928 23.88C76.5688 22.936 77.1288 22.188 77.8728 21.636C78.6248 21.084 79.5688 20.808 80.7048 20.808C81.7448 20.808 82.6208 21.036 83.3328 21.492C84.0448 21.948 84.5848 22.564 84.9528 23.34C85.3208 24.108 85.5048 24.972 85.5048 25.932C85.5048 26.34 85.4888 26.688 85.4568 26.976C85.4328 27.256 85.3808 27.568 85.3008 27.912H77.3088ZM92.8248 31.008C92.9688 31.408 93.0408 31.852 93.0408 32.34C93.0408 32.436 93.0368 32.536 93.0288 32.64C93.0288 32.744 93.0168 32.836 92.9928 32.916C92.7048 32.964 92.3648 33.008 91.9728 33.048C91.5808 33.088 91.2128 33.108 90.8688 33.108C90.0448 33.108 89.4288 32.892 89.0208 32.46C88.6128 32.028 88.4088 31.38 88.4088 30.516V15.504L88.5648 15.348H89.5728C90.1248 15.348 90.5008 15.48 90.7008 15.744C90.9088 16.008 91.0128 16.436 91.0128 17.028V29.94C91.0128 30.292 91.0888 30.56 91.2408 30.744C91.4008 30.92 91.6448 31.008 91.9728 31.008H92.8248ZM96.1994 27.912V26.004H101.851V25.692C101.851 25.164 101.775 24.68 101.623 24.24C101.479 23.792 101.239 23.436 100.903 23.172C100.567 22.9 100.127 22.764 99.5834 22.764C98.7994 22.764 98.2154 23.096 97.8314 23.76C97.4554 24.416 97.2674 25.328 97.2674 26.496V27.312C97.2674 28.04 97.3394 28.696 97.4834 29.28C97.6354 29.864 97.9034 30.328 98.2874 30.672C98.6714 31.008 99.2234 31.176 99.9434 31.176C100.543 31.176 101.119 31.092 101.671 30.924C102.223 30.748 102.755 30.536 103.267 30.288C103.475 30.496 103.647 30.76 103.783 31.08C103.927 31.4 104.019 31.696 104.059 31.968C103.483 32.376 102.795 32.704 101.995 32.952C101.195 33.2 100.379 33.324 99.5474 33.324C98.5794 33.324 97.7714 33.156 97.1234 32.82C96.4754 32.476 95.9634 32.012 95.5874 31.428C95.2114 30.836 94.9394 30.168 94.7714 29.424C94.6114 28.68 94.5314 27.904 94.5314 27.096C94.5314 25.896 94.7154 24.824 95.0834 23.88C95.4594 22.936 96.0194 22.188 96.7634 21.636C97.5154 21.084 98.4594 20.808 99.5954 20.808C100.635 20.808 101.511 21.036 102.223 21.492C102.935 21.948 103.475 22.564 103.843 23.34C104.211 24.108 104.395 24.972 104.395 25.932C104.395 26.34 104.379 26.688 104.347 26.976C104.323 27.256 104.271 27.568 104.191 27.912H96.1994ZM107.779 19.152C107.779 18.552 107.879 18.124 108.079 17.868C108.287 17.604 108.667 17.472 109.219 17.472H110.239L110.383 17.616V29.964C110.383 30.284 110.459 30.54 110.611 30.732C110.771 30.916 111.031 31.008 111.391 31.008H112.999C113.143 31.416 113.215 31.86 113.215 32.34C113.215 32.436 113.211 32.536 113.203 32.64C113.203 32.744 113.187 32.836 113.155 32.916C112.755 32.972 112.315 33.016 111.835 33.048C111.363 33.088 110.891 33.108 110.419 33.108C109.563 33.108 108.907 32.892 108.451 32.46C108.003 32.028 107.779 31.38 107.779 30.516V19.152ZM113.347 21.108C113.419 21.444 113.455 21.768 113.455 22.08C113.455 22.416 113.419 22.744 113.347 23.064L109.339 23.004L106.015 23.064C105.935 22.744 105.895 22.416 105.895 22.08C105.895 21.768 105.935 21.444 106.015 21.108L109.375 21.168L113.347 21.108ZM116.473 27.912V26.004H122.125V25.692C122.125 25.164 122.049 24.68 121.897 24.24C121.753 23.792 121.513 23.436 121.177 23.172C120.841 22.9 120.401 22.764 119.857 22.764C119.073 22.764 118.489 23.096 118.105 23.76C117.729 24.416 117.541 25.328 117.541 26.496V27.312C117.541 28.04 117.613 28.696 117.757 29.28C117.909 29.864 118.177 30.328 118.561 30.672C118.945 31.008 119.497 31.176 120.217 31.176C120.817 31.176 121.393 31.092 121.945 30.924C122.497 30.748 123.029 30.536 123.541 30.288C123.749 30.496 123.921 30.76 124.057 31.08C124.201 31.4 124.293 31.696 124.333 31.968C123.757 32.376 123.069 32.704 122.269 32.952C121.469 33.2 120.653 33.324 119.821 33.324C118.853 33.324 118.045 33.156 117.397 32.82C116.749 32.476 116.237 32.012 115.861 31.428C115.485 30.836 115.213 30.168 115.045 29.424C114.885 28.68 114.805 27.904 114.805 27.096C114.805 25.896 114.989 24.824 115.357 23.88C115.733 22.936 116.293 22.188 117.037 21.636C117.789 21.084 118.733 20.808 119.869 20.808C120.909 20.808 121.785 21.036 122.497 21.492C123.209 21.948 123.749 22.564 124.117 23.34C124.485 24.108 124.669 24.972 124.669 25.932C124.669 26.34 124.653 26.688 124.621 26.976C124.597 27.256 124.545 27.568 124.465 27.912H116.473Z" fill="#974FD0"/>
<rect x="0.5" y="0.5" width="150" height="49" rx="7.5" stroke="#974FD0"/>
</svg>
