<svg width="126" height="50" viewBox="0 0 126 50" fill="none" xmlns="http://www.w3.org/2000/svg">
<rect width="126" height="50" rx="8" fill="#974FD0"/>
<g clip-path="url(#clip0_12_4968)">
<path d="M43.6666 33H29V18.3333H37.8133L39.1466 17H29C28.6463 17 28.3072 17.1405 28.0572 17.3905C27.8071 17.6406 27.6666 17.9797 27.6666 18.3333V33C27.6666 33.3536 27.8071 33.6928 28.0572 33.9428C28.3072 34.1929 28.6463 34.3333 29 34.3333H43.6666C44.0202 34.3333 44.3594 34.1929 44.6094 33.9428C44.8595 33.6928 45 33.3536 45 33V23L43.6666 24.3333V33Z" fill="#FAF9FB"/>
<path d="M47.3534 16.8933L45.1067 14.6467C45.007 14.5467 44.8886 14.4674 44.7581 14.4132C44.6277 14.3591 44.4879 14.3313 44.3467 14.3313C44.2055 14.3313 44.0657 14.3591 43.9353 14.4132C43.8049 14.4674 43.6864 14.5467 43.5867 14.6467L34.4467 23.84L33.7067 27.0467C33.6752 27.2021 33.6785 27.3626 33.7164 27.5166C33.7543 27.6706 33.8259 27.8143 33.926 27.9373C34.0261 28.0604 34.1522 28.1597 34.2953 28.2282C34.4383 28.2966 34.5948 28.3326 34.7534 28.3333C34.8354 28.3424 34.9181 28.3424 35.0001 28.3333L38.2334 27.62L47.3534 18.4133C47.4534 18.3136 47.5327 18.1952 47.5868 18.0648C47.6409 17.9343 47.6688 17.7945 47.6688 17.6533C47.6688 17.5121 47.6409 17.3723 47.5868 17.2419C47.5327 17.1115 47.4534 16.993 47.3534 16.8933ZM37.5401 26.3867L35.1001 26.9267L35.6667 24.5067L42.5467 17.58L44.4267 19.46L37.5401 26.3867ZM45.1801 18.7067L43.3001 16.8267L44.3334 15.7733L46.2267 17.6667L45.1801 18.7067Z" fill="#FAF9FB"/>
</g>
<path d="M61.112 16.764L61.268 16.608H63.788V18.864C63.788 19.2 63.792 19.48 63.8 19.704C63.808 19.92 63.812 20.192 63.812 20.52V29.472C63.812 29.696 63.808 29.908 63.8 30.108C63.792 30.3 63.788 30.516 63.788 30.756V33.036H62.684C62.196 33.036 61.812 32.888 61.532 32.592C61.252 32.288 61.112 31.876 61.112 31.356V16.764ZM69.704 23.592C69.752 23.768 69.788 23.964 69.812 24.18C69.836 24.396 69.848 24.58 69.848 24.732C69.848 24.884 69.836 25.064 69.812 25.272C69.788 25.48 69.752 25.676 69.704 25.86H65.324C65.14 25.86 64.9 25.86 64.604 25.86C64.308 25.852 64.004 25.848 63.692 25.848C63.38 25.84 63.104 25.836 62.864 25.836V23.628C63.104 23.62 63.38 23.616 63.692 23.616C64.004 23.608 64.308 23.604 64.604 23.604C64.9 23.596 65.14 23.592 65.324 23.592H69.704ZM71.024 16.608C71.064 16.808 71.088 17 71.096 17.184C71.112 17.368 71.12 17.536 71.12 17.688C71.12 17.848 71.1 18.044 71.06 18.276C71.028 18.5 70.976 18.716 70.904 18.924H65.324C65.14 18.924 64.9 18.924 64.604 18.924C64.308 18.924 64.004 18.92 63.692 18.912C63.38 18.904 63.104 18.896 62.864 18.888V16.608H71.024ZM71.516 30.708C71.516 31.524 71.388 32.116 71.132 32.484C70.884 32.852 70.408 33.036 69.704 33.036H62.864V30.816C63.264 30.792 63.66 30.768 64.052 30.744C64.444 30.72 64.892 30.708 65.396 30.708H71.516ZM83.2554 29.616C83.2554 30.064 83.3034 30.488 83.3994 30.888C83.5034 31.28 83.6794 31.588 83.9274 31.812C83.8634 32.052 83.7394 32.308 83.5554 32.58C83.3714 32.844 83.1754 33.044 82.9674 33.18C82.1514 33.044 81.5594 32.672 81.1914 32.064C80.8314 31.456 80.6514 30.752 80.6514 29.952V15.504L80.8074 15.348H81.8154C82.3754 15.348 82.7554 15.48 82.9554 15.744C83.1554 16.008 83.2554 16.436 83.2554 17.028V29.616ZM73.3794 27.216C73.3794 25.792 73.5994 24.616 74.0394 23.688C74.4874 22.752 75.0634 22.06 75.7674 21.612C76.4794 21.156 77.2274 20.928 78.0114 20.928C78.7874 20.928 79.4954 21.088 80.1354 21.408C80.7754 21.728 81.3714 22.084 81.9234 22.476L81.5994 24.528C81.1354 24.168 80.6274 23.828 80.0754 23.508C79.5234 23.18 78.9634 23.016 78.3954 23.016C77.9554 23.016 77.5594 23.172 77.2074 23.484C76.8634 23.788 76.5914 24.252 76.3914 24.876C76.1914 25.5 76.0914 26.28 76.0914 27.216C76.0914 28.136 76.1874 28.884 76.3794 29.46C76.5714 30.028 76.8234 30.448 77.1354 30.72C77.4474 30.984 77.7874 31.116 78.1554 31.116C78.5394 31.116 78.9434 31.012 79.3674 30.804C79.7914 30.596 80.1874 30.268 80.5554 29.82C80.9234 29.364 81.2114 28.764 81.4194 28.02L81.9714 29.904C81.8354 30.456 81.5594 30.996 81.1434 31.524C80.7274 32.044 80.2114 32.476 79.5954 32.82C78.9794 33.156 78.2914 33.324 77.5314 33.324C76.6114 33.324 75.8434 33.068 75.2274 32.556C74.6114 32.036 74.1474 31.316 73.8354 30.396C73.5314 29.476 73.3794 28.416 73.3794 27.216ZM89.8751 33C89.4911 33.072 89.0471 33.108 88.5431 33.108C88.0391 33.108 87.5951 33.072 87.2111 33V24.324C87.2111 23.908 87.1351 23.596 86.9831 23.388C86.8311 23.172 86.5551 23.064 86.1551 23.064H85.8671C85.7951 22.76 85.7591 22.448 85.7591 22.128C85.7591 21.976 85.7671 21.82 85.7831 21.66C85.7991 21.492 85.8271 21.324 85.8671 21.156C86.1791 21.116 86.4791 21.088 86.7671 21.072C87.0551 21.056 87.2911 21.048 87.4751 21.048H87.8351C88.4671 21.048 88.9631 21.248 89.3231 21.648C89.6911 22.048 89.8751 22.596 89.8751 23.292V33ZM86.4671 17.904C86.4671 17.488 86.5431 17.116 86.6951 16.788C86.8551 16.7 87.0631 16.628 87.3191 16.572C87.5831 16.508 87.8391 16.476 88.0871 16.476C88.3191 16.476 88.5751 16.508 88.8551 16.572C89.1351 16.628 89.3431 16.7 89.4791 16.788C89.5431 16.94 89.5951 17.12 89.6351 17.328C89.6831 17.536 89.7071 17.728 89.7071 17.904C89.7071 18.32 89.6311 18.696 89.4791 19.032C89.3511 19.12 89.1431 19.192 88.8551 19.248C88.5751 19.304 88.3191 19.332 88.0871 19.332C87.8391 19.332 87.5791 19.304 87.3071 19.248C87.0431 19.192 86.8391 19.12 86.6951 19.032C86.5431 18.696 86.4671 18.32 86.4671 17.904ZM93.7873 19.152C93.7873 18.552 93.8873 18.124 94.0873 17.868C94.2953 17.604 94.6753 17.472 95.2273 17.472H96.2473L96.3913 17.616V29.964C96.3913 30.284 96.4673 30.54 96.6193 30.732C96.7793 30.916 97.0393 31.008 97.3993 31.008H99.0073C99.1513 31.416 99.2233 31.86 99.2233 32.34C99.2233 32.436 99.2193 32.536 99.2113 32.64C99.2113 32.744 99.1953 32.836 99.1633 32.916C98.7633 32.972 98.3233 33.016 97.8433 33.048C97.3713 33.088 96.8993 33.108 96.4273 33.108C95.5713 33.108 94.9153 32.892 94.4593 32.46C94.0113 32.028 93.7873 31.38 93.7873 30.516V19.152ZM99.3553 21.108C99.4273 21.444 99.4633 21.768 99.4633 22.08C99.4633 22.416 99.4273 22.744 99.3553 23.064L95.3473 23.004L92.0233 23.064C91.9433 22.744 91.9033 22.416 91.9033 22.08C91.9033 21.768 91.9433 21.444 92.0233 21.108L95.3833 21.168L99.3553 21.108Z" fill="#FAF9FB"/>
<defs>
<clipPath id="clip0_12_4968">
<rect width="24" height="24" fill="white" transform="translate(25 13)"/>
</clipPath>
</defs>
</svg>
